<?xml version="1.0" encoding="utf-8"?>
<!-- Generator: Adobe Illustrator 16.0.0, SVG Export Plug-In . SVG Version: 6.00 Build 0)  -->
<!DOCTYPE svg PUBLIC "-//W3C//DTD SVG 1.1//EN" "http://www.w3.org/Graphics/SVG/1.1/DTD/svg11.dtd">
<svg version="1.1" id="Ebene_1" xmlns="http://www.w3.org/2000/svg" xmlns:xlink="http://www.w3.org/1999/xlink" x="0px" y="0px"
	 width="62.584px" height="17.75px" viewBox="7.5 21.75 62.584 17.75" enable-background="new 7.5 21.75 62.584 17.75"
	 xml:space="preserve">
<g>
	<path fill="#AD8012" d="M17.601,24.751c0,0.159-0.355,0.707-1.074,1.638c-0.617,0.794-1.237,1.578-1.846,2.361
		c-0.334,0.461-0.75,1.014-1.248,1.654c-0.449,0.586-0.714,0.938-0.789,1.041c-0.022,0.021-0.199,0.252-0.531,0.689
		c-0.139,0.148-0.221,0.334-0.242,0.533c0,0.629,0.225,1.237,0.637,1.715c0.422,0.515,0.926,0.771,1.518,0.771
		c0.564,0,1.041-0.252,1.431-0.755c0.334-0.427,0.515-0.954,0.515-1.49h0.323c0.247,0.147,0.517,0.274,0.789,0.367
		c0.247,0.099,0.367,0.196,0.367,0.308c0,0.492-0.433,1.041-1.3,1.653c-0.694,0.478-1.518,0.724-2.36,0.707
		c-0.933,0-1.654-0.126-2.163-0.384c-0.45-0.291-0.895-0.575-1.332-0.865c-0.044,0-0.273,0.27-0.689,0.811
		c-0.226,0.291-0.362,0.465-0.416,0.521h-0.57c-0.021-0.056-0.044-0.108-0.066-0.158c0-0.088,0.182-0.368,0.549-0.833
		c0.361-0.471,0.549-0.789,0.549-0.947c-0.385-0.482-0.69-1.024-0.898-1.605c-0.296-0.801-0.438-1.639-0.422-2.477
		c0-1.431,0.521-2.816,1.479-3.891c1.035-1.205,2.28-1.813,3.721-1.813c0.443,0.011,0.884,0.099,1.293,0.257
		c0.467,0.169,0.949,0.345,1.453,0.531c0.19,0,0.433-0.137,0.723-0.416c0.138-0.137,0.24-0.208,0.309-0.208
		c0.075,0.01,0.143,0.054,0.19,0.109c0.075,0.077,0.114,0.137,0.114,0.175L17.601,24.751L17.601,24.751z M14.823,26.515
		c0.01-0.351-0.1-0.696-0.313-0.97c-0.209-0.263-0.526-0.405-0.86-0.395c-0.629,0-1.112,0.421-1.445,1.26
		c-0.335,0.839-0.499,1.945-0.499,3.314c0,0.138,0,0.263-0.006,0.378c-0.005,0.114-0.005,0.214-0.005,0.296
		c0,0.115,0.011,0.225,0.033,0.334c0.021,0.125,0.037,0.252,0.049,0.367c0.258-0.176,0.481-0.399,0.658-0.657
		c0.18-0.269,0.359-0.538,0.547-0.8c0.481-0.575,0.801-0.98,0.965-1.206c0.587-0.794,0.882-1.435,0.882-1.928L14.823,26.515z"/>
	<path fill="#AD8012" d="M23.622,31.555c0,0.51-0.094,1.021-0.291,1.49c-0.12,0.291-0.273,0.57-0.465,0.816
		c-0.346,0.471-0.608,0.822-0.801,1.059c-0.575,0.707-0.959,1.057-1.141,1.057c-0.146,0-0.333-0.088-0.548-0.264
		c-0.213-0.174-0.416-0.351-0.606-0.521c-0.511-0.394-0.926-0.888-1.238-1.452c-0.29-0.559-0.443-1.177-0.434-1.809
		c0-0.454,0.071-0.909,0.225-1.342c0.138-0.399,0.341-0.777,0.592-1.117c1.189-1.563,1.868-2.345,2.039-2.345
		c0.087,0,0.372,0.257,0.865,0.772c0.438,0.423,0.826,0.899,1.156,1.414c0.19,0.334,0.344,0.696,0.453,1.067
		c0.121,0.379,0.182,0.768,0.188,1.162L23.622,31.555z M22.147,33.479c0-0.877-0.226-1.743-0.658-2.505
		c-0.65-1.166-1.204-1.747-1.653-1.747c-0.126,0-0.219,0.099-0.263,0.296c-0.051,0.203-0.071,0.41-0.071,0.619
		c0,0.953,0.187,1.715,0.563,2.279c0.279,0.428,0.894,1.02,1.848,1.765c0.087-0.083,0.152-0.181,0.189-0.29
		c0.039-0.137,0.057-0.273,0.051-0.417H22.147z"/>
	<path fill="#AD8012" d="M29.994,35.057c0,0.109-0.252,0.296-0.763,0.559c-0.508,0.268-0.806,0.398-0.894,0.398
		c-0.125,0-0.278-0.104-0.448-0.305c-0.17-0.203-0.34-0.412-0.516-0.625c-0.1,0-0.434,0.152-1.014,0.465
		c-0.575,0.313-0.903,0.465-0.98,0.465c-0.138,0-0.313-0.137-0.516-0.41c-0.191-0.241-0.301-0.537-0.307-0.844v-5.34
		c-0.016-0.148-0.059-0.297-0.125-0.434c-0.086-0.203-0.17-0.416-0.257-0.641c0.037-0.028,0.07-0.061,0.099-0.1
		c0.125-0.137,0.24-0.252,0.34-0.34c0.137-0.137,0.279-0.285,0.416-0.433c0.27-0.269,0.434-0.4,0.498-0.4
		c0.1,0,0.285,0.159,0.564,0.482c0.34,0.395,0.516,0.785,0.516,1.156v5.348c0.006,0.154,0.082,0.297,0.203,0.395
		c0.088,0.1,0.213,0.165,0.344,0.188c0.046,0,0.09-0.018,0.128-0.039c0.044-0.028,0.077-0.045,0.099-0.055v-7.243h2.196v6.931
		c0,0.202,0.071,0.396,0.209,0.547C29.867,34.864,29.938,34.959,29.994,35.057"/>
	<path fill="#AD8012" d="M36.416,34.926c0,0.125-0.235,0.377-0.708,0.738c-0.471,0.368-0.756,0.549-0.85,0.549
		c-0.088,0-0.252-0.17-0.498-0.516c-0.279-0.378-0.416-0.686-0.416-0.932v-5.1c-0.012-0.197-0.066-0.396-0.159-0.57
		c-0.109-0.23-0.235-0.346-0.384-0.346c-0.104,0.012-0.191,0.072-0.241,0.159c-0.06,0.071-0.099,0.165-0.115,0.259v6.805h-2.229
		v-6.889c-0.01-0.18-0.082-0.351-0.201-0.486c-0.072-0.088-0.145-0.182-0.204-0.28c0-0.065,0.28-0.246,0.833-0.547
		c0.559-0.302,0.871-0.45,0.947-0.45c0.158,0,0.34,0.17,0.537,0.504c0.196,0.34,0.334,0.504,0.41,0.504
		c0.127,0,0.504-0.17,1.123-0.504c0.619-0.34,0.942-0.504,0.965-0.504c0.127,0,0.291,0.138,0.481,0.417
		c0.229,0.313,0.351,0.69,0.351,1.079v5.111c0.006,0.16,0.045,0.313,0.115,0.461C36.251,34.563,36.328,34.744,36.416,34.926"/>
	<path fill="#AD8012" d="M40.327,34.942c0,0.087-0.235,0.278-0.712,0.586c-0.478,0.308-0.773,0.455-0.894,0.455
		c-0.182,0-0.379-0.147-0.587-0.444c-0.208-0.295-0.313-0.547-0.313-0.761v-6.866h-0.93v-0.74c0.674,0,1.305-0.263,1.896-0.794
		c0.482-0.444,0.777-0.882,0.882-1.304h0.226v1.671c0,0.181,0.125,0.323,0.383,0.433v0.74h-0.334v6.098
		c0.019,0.209,0.082,0.406,0.191,0.576C40.263,34.815,40.327,34.937,40.327,34.942"/>
</g>
<g>
	<path fill="#AD8012" d="M52.338,25.247c0,0.473-0.292,1.374-0.871,2.701c-0.417,0.899-0.827,1.795-1.238,2.683l-1.17,2.689
		c-0.299,0.647-0.523,1.143-0.676,1.486c-0.186,0.416-0.405,0.81-0.658,1.188c-0.197-0.242-0.354-0.513-0.461-0.811
		c-0.078-0.186-0.32-0.811-0.727-1.862c-0.438-1.143-0.866-2.222-1.282-3.247c-0.32-0.781-0.765-1.969-1.333-3.578
		c-0.416-1.176-0.754-1.986-1.008-2.425v-0.214h3.246c0.242,0.388,0.445,0.793,0.608,1.221c0.275,0.636,0.607,1.463,1.007,2.47
		c0.451,1.176,0.737,1.924,0.855,2.24c0.299,0.771,0.518,1.238,0.658,1.401c0.186-0.209,0.501-0.822,0.939-1.846
		c0.529-1.244,0.794-2.188,0.794-2.835c0-0.625-0.22-1.058-0.658-1.3c-0.354-0.168-0.743-0.248-1.136-0.231l-0.052-0.146
		c0.017-0.27,0.142-0.528,0.349-0.708c0.315-0.332,0.76-0.512,1.222-0.495c0.427-0.006,0.832,0.163,1.131,0.467
		c0.31,0.299,0.478,0.715,0.467,1.148L52.338,25.247z"/>
	<path fill="#AD8012" d="M55.551,25.461c-0.118,0.276-0.31,0.512-0.563,0.676c-0.304,0.231-0.674,0.359-1.052,0.359
		c-0.236-0.005-0.473-0.062-0.687-0.163c-0.247-0.112-0.371-0.248-0.371-0.411c0-0.09,0.146-0.265,0.444-0.529
		C53.62,25.129,53.84,25,53.979,25c0.108,0,0.203,0.045,0.265,0.13c0.175,0.219,0.608,0.332,1.301,0.332L55.551,25.461
		L55.551,25.461z M55.73,35.994h-2.323v-7.051c-0.006-0.084-0.039-0.168-0.09-0.242c-0.096-0.134-0.203-0.27-0.32-0.388
		c0.252-0.259,0.528-0.501,0.815-0.725c0.489-0.405,0.771-0.614,0.85-0.614c0.163,0,0.383,0.265,0.658,0.799
		c0.275,0.535,0.41,0.924,0.41,1.165v7.05V35.994z"/>
	<path fill="#AD8012" d="M62.803,36.291c0,0.58-0.355,1.143-1.063,1.688c-0.709,0.546-1.413,0.816-2.116,0.816
		c-0.404,0-0.811-0.091-1.188-0.248c-0.404-0.163-0.607-0.354-0.607-0.575c0.09-0.146,0.191-0.281,0.298-0.409
		c0.255-0.276,0.513-0.411,0.777-0.411c0.169,0.254,0.359,0.489,0.573,0.71c0.203,0.208,0.484,0.319,0.777,0.315
		c0.28-0.012,0.551-0.124,0.76-0.322c0.236-0.18,0.376-0.455,0.376-0.748c0-0.141-0.202-0.506-0.606-1.085
		c-0.406-0.58-0.653-0.872-0.743-0.872c-0.124,0-0.349,0.129-0.675,0.394c-0.327,0.265-0.58,0.394-0.761,0.394
		c-0.23,0-0.625-0.398-1.187-1.203c-0.669-0.957-1.006-1.886-1.006-2.797c0-0.799,0.415-1.721,1.254-2.762
		c0.45-0.519,0.951-0.99,1.496-1.407c0.704-0.563,1.097-0.85,1.188-0.85c0.438,0.383,0.766,0.675,0.974,0.872
		c0.658,0.625,0.989,1.029,0.989,1.221v5.812c0,0.113,0.085,0.304,0.249,0.574c0.162,0.276,0.247,0.585,0.247,0.906L62.803,36.291z
		 M59.95,34.244v-4.93c-0.141-0.196-0.253-0.348-0.332-0.443c-0.252-0.311-0.427-0.461-0.528-0.461c-0.22,0-0.444,0.393-0.675,1.186
		c-0.09,0.282-0.146,0.574-0.163,0.873c0,0.73,0.163,1.451,0.478,2.109C59.156,33.49,59.562,34.047,59.95,34.244"/>
	<path fill="#AD8012" d="M68.952,31.408c0,0.523-0.096,1.047-0.298,1.529c-0.125,0.299-0.281,0.586-0.479,0.839
		c-0.354,0.485-0.624,0.844-0.822,1.087c-0.591,0.726-0.984,1.086-1.169,1.086c-0.215-0.029-0.411-0.124-0.563-0.271
		c-0.22-0.181-0.428-0.36-0.624-0.534c-0.524-0.405-0.951-0.912-1.272-1.491c-0.298-0.574-0.456-1.21-0.444-1.856
		c0-0.467,0.073-0.934,0.231-1.379c0.14-0.411,0.349-0.799,0.606-1.148c1.221-1.603,1.92-2.408,2.094-2.408
		c0.089,0,0.382,0.265,0.888,0.793c0.451,0.435,0.851,0.923,1.188,1.452c0.197,0.343,0.354,0.715,0.468,1.098
		c0.123,0.388,0.185,0.787,0.192,1.191L68.952,31.408z M67.438,33.383c0-0.9-0.231-1.789-0.676-2.571
		c-0.668-1.198-1.236-1.795-1.698-1.795c-0.129,0-0.225,0.101-0.27,0.304c-0.051,0.209-0.073,0.422-0.073,0.637
		c0,0.979,0.191,1.755,0.579,2.34c0.287,0.438,0.917,1.047,1.896,1.811c0.09-0.084,0.157-0.184,0.197-0.297
		c0.039-0.141,0.055-0.281,0.049-0.428H67.438L67.438,33.383z"/>
</g>
</svg>
