<?xml version="1.0" encoding="utf-8"?>
<!-- Generator: Adobe Illustrator 16.0.0, SVG Export Plug-In . SVG Version: 6.00 Build 0)  -->
<!DOCTYPE svg PUBLIC "-//W3C//DTD SVG 1.1//EN" "http://www.w3.org/Graphics/SVG/1.1/DTD/svg11.dtd">
<svg version="1.1" id="Ebene_1" xmlns="http://www.w3.org/2000/svg" xmlns:xlink="http://www.w3.org/1999/xlink" x="0px" y="0px"
	 width="80.5px" height="54.5px" viewBox="0 0 80.5 54.5" enable-background="new 0 0 80.5 54.5" xml:space="preserve">
<g>
	<g>
		<path fill="#FFFFFF" d="M52.059,5.057c0,0.159-0.356,0.707-1.074,1.638c-0.618,0.794-1.238,1.578-1.846,2.361
			c-0.335,0.46-0.751,1.014-1.249,1.654c-0.449,0.586-0.713,0.937-0.789,1.041c-0.022,0.022-0.198,0.252-0.531,0.69
			c-0.138,0.148-0.22,0.334-0.242,0.532c0,0.63,0.225,1.238,0.637,1.715c0.421,0.515,0.926,0.772,1.517,0.772
			c0.565,0,1.042-0.252,1.431-0.755c0.334-0.427,0.515-0.954,0.515-1.49h0.323c0.247,0.147,0.516,0.274,0.789,0.367
			c0.247,0.098,0.367,0.197,0.367,0.307c0,0.493-0.433,1.041-1.299,1.654c-0.695,0.477-1.518,0.724-2.361,0.707
			c-0.932,0-1.654-0.126-2.163-0.384c-0.45-0.291-0.895-0.575-1.332-0.865c-0.044,0-0.274,0.269-0.69,0.811
			c-0.225,0.29-0.362,0.465-0.416,0.52h-0.57c-0.022-0.055-0.044-0.109-0.066-0.158c0-0.088,0.182-0.368,0.549-0.833
			c0.361-0.471,0.548-0.789,0.548-0.948c-0.384-0.482-0.69-1.024-0.898-1.605c-0.296-0.8-0.438-1.638-0.422-2.477
			c0-1.43,0.521-2.816,1.479-3.89c1.035-1.205,2.28-1.813,3.721-1.813c0.443,0.011,0.883,0.099,1.293,0.257
			c0.466,0.169,0.948,0.345,1.452,0.531c0.191,0,0.433-0.137,0.723-0.416c0.138-0.137,0.241-0.208,0.308-0.208
			c0.076,0.01,0.143,0.054,0.191,0.109c0.076,0.077,0.115,0.137,0.115,0.175H52.059z M49.281,6.821c0.01-0.351-0.1-0.696-0.313-0.97
			c-0.209-0.263-0.526-0.405-0.86-0.395c-0.63,0-1.113,0.421-1.446,1.26c-0.335,0.839-0.499,1.945-0.499,3.315
			c0,0.137,0,0.262-0.006,0.377c-0.005,0.115-0.005,0.214-0.005,0.296c0,0.115,0.011,0.224,0.033,0.334
			c0.021,0.125,0.038,0.252,0.049,0.367c0.258-0.175,0.482-0.399,0.658-0.657c0.181-0.269,0.36-0.538,0.548-0.8
			c0.481-0.575,0.8-0.98,0.964-1.206c0.587-0.794,0.882-1.435,0.882-1.928L49.281,6.821z"/>
		<path fill="#FFFFFF" d="M58.08,11.861c0,0.509-0.093,1.02-0.291,1.49c-0.12,0.29-0.273,0.57-0.465,0.816
			c-0.346,0.471-0.608,0.822-0.8,1.058c-0.576,0.707-0.96,1.057-1.141,1.057c-0.147,0-0.333-0.088-0.548-0.263
			c-0.213-0.175-0.416-0.351-0.607-0.521c-0.51-0.394-0.926-0.887-1.238-1.452c-0.29-0.558-0.443-1.177-0.434-1.808
			c0-0.455,0.072-0.91,0.225-1.342c0.138-0.4,0.341-0.778,0.592-1.118c1.189-1.562,1.868-2.345,2.039-2.345
			c0.087,0,0.372,0.257,0.865,0.772c0.438,0.423,0.827,0.899,1.156,1.414c0.191,0.334,0.345,0.696,0.454,1.068
			c0.121,0.378,0.181,0.767,0.187,1.162L58.08,11.861z M56.605,13.785c0-0.877-0.225-1.743-0.657-2.504
			c-0.651-1.167-1.205-1.748-1.654-1.748c-0.126,0-0.219,0.099-0.263,0.296c-0.05,0.203-0.071,0.411-0.071,0.62
			c0,0.953,0.187,1.714,0.564,2.278c0.279,0.428,0.893,1.02,1.847,1.765c0.087-0.083,0.153-0.181,0.19-0.29
			c0.039-0.137,0.056-0.274,0.05-0.417H56.605z"/>
		<path fill="#FFFFFF" d="M64.452,15.362c0,0.11-0.252,0.296-0.762,0.559c-0.509,0.268-0.806,0.399-0.894,0.399
			c-0.125,0-0.279-0.104-0.448-0.306c-0.17-0.203-0.34-0.411-0.516-0.625c-0.099,0-0.433,0.153-1.014,0.466
			c-0.575,0.313-0.903,0.465-0.98,0.465c-0.138,0-0.313-0.137-0.516-0.411c-0.191-0.241-0.301-0.537-0.307-0.844V9.725
			C59,9.577,58.957,9.429,58.891,9.292c-0.087-0.203-0.17-0.416-0.257-0.641c0.037-0.028,0.07-0.06,0.099-0.099
			c0.125-0.137,0.24-0.252,0.339-0.34c0.137-0.137,0.28-0.285,0.416-0.433c0.27-0.269,0.434-0.4,0.499-0.4
			c0.099,0,0.284,0.159,0.564,0.482c0.34,0.395,0.516,0.784,0.516,1.156v5.348c0.005,0.154,0.082,0.296,0.202,0.394
			c0.088,0.099,0.214,0.165,0.345,0.187c0.045,0,0.089-0.017,0.127-0.039c0.044-0.028,0.077-0.044,0.099-0.055V7.61h2.196v6.931
			c0,0.202,0.072,0.395,0.209,0.547C64.325,15.17,64.396,15.264,64.452,15.362"/>
		<path fill="#FFFFFF" d="M70.874,15.231c0,0.126-0.236,0.378-0.708,0.739c-0.471,0.368-0.756,0.548-0.849,0.548
			c-0.088,0-0.252-0.17-0.499-0.515c-0.279-0.378-0.416-0.685-0.416-0.932V9.971c-0.011-0.197-0.066-0.395-0.159-0.57
			c-0.109-0.23-0.235-0.345-0.383-0.345c-0.105,0.011-0.192,0.072-0.242,0.159c-0.06,0.071-0.099,0.165-0.115,0.258v6.805h-2.229
			V9.39c-0.011-0.18-0.082-0.351-0.202-0.487C65,8.815,64.928,8.722,64.868,8.623c0-0.065,0.28-0.246,0.833-0.547
			c0.559-0.302,0.871-0.45,0.948-0.45c0.158,0,0.339,0.17,0.536,0.504c0.197,0.34,0.334,0.504,0.411,0.504
			c0.126,0,0.504-0.17,1.123-0.504c0.619-0.34,0.942-0.504,0.964-0.504c0.127,0,0.291,0.138,0.482,0.417
			c0.23,0.313,0.351,0.69,0.351,1.079v5.112c0.006,0.159,0.044,0.312,0.115,0.46C70.709,14.869,70.786,15.05,70.874,15.231"/>
		<path fill="#FFFFFF" d="M74.785,15.248c0,0.087-0.235,0.279-0.712,0.586c-0.478,0.307-0.773,0.455-0.894,0.455
			c-0.181,0-0.378-0.147-0.586-0.444c-0.208-0.295-0.313-0.547-0.313-0.761V8.218H71.35v-0.74c0.674,0,1.305-0.263,1.896-0.794
			c0.482-0.444,0.778-0.882,0.882-1.304h0.226v1.671c0,0.181,0.125,0.323,0.383,0.433v0.74h-0.334v6.098
			c0.018,0.208,0.082,0.405,0.191,0.575C74.72,15.121,74.785,15.242,74.785,15.248"/>
	</g>
	<g>
		<path fill="#FFFFFF" d="M29.912,15.194c0,1.277-0.791,3.709-2.355,7.295c-1.125,2.43-2.234,4.848-3.344,7.248L21.053,37
			c-0.807,1.748-1.413,3.084-1.824,4.012c-0.501,1.125-1.094,2.188-1.777,3.207c-0.533-0.654-0.957-1.383-1.246-2.189
			c-0.213-0.5-0.867-2.188-1.961-5.029c-1.185-3.086-2.34-6.002-3.465-8.768c-0.865-2.113-2.065-5.318-3.601-9.664
			c-1.125-3.176-2.036-5.366-2.721-6.55v-0.577h8.769c0.652,1.048,1.2,2.141,1.641,3.297c0.745,1.717,1.642,3.951,2.721,6.67
			c1.216,3.176,1.99,5.197,2.31,6.049c0.806,2.082,1.397,3.344,1.778,3.783c0.501-0.561,1.352-2.219,2.537-4.982
			c1.429-3.359,2.143-5.912,2.143-7.66c0-1.688-0.593-2.857-1.777-3.51c-0.957-0.455-2.006-0.67-3.069-0.623l-0.138-0.396
			c0.045-0.728,0.381-1.427,0.942-1.914c0.851-0.896,2.052-1.383,3.298-1.337c1.154-0.016,2.249,0.44,3.055,1.261
			c0.836,0.806,1.291,1.931,1.261,3.101L29.912,15.194z"/>
		<path fill="#FFFFFF" d="M38.589,15.772c-0.319,0.744-0.836,1.383-1.521,1.824c-0.82,0.623-1.822,0.971-2.842,0.971
			c-0.638-0.014-1.275-0.166-1.854-0.439c-0.668-0.303-1.002-0.668-1.002-1.109c0-0.244,0.395-0.715,1.199-1.428
			c0.806-0.715,1.398-1.064,1.778-1.064c0.289,0,0.547,0.121,0.714,0.35c0.471,0.592,1.641,0.896,3.512,0.896H38.589z
			 M39.074,44.219h-6.275V25.178c-0.016-0.229-0.105-0.455-0.243-0.654c-0.258-0.363-0.547-0.729-0.866-1.049
			c0.684-0.699,1.428-1.352,2.203-1.959c1.322-1.094,2.082-1.656,2.295-1.656c0.44,0,1.033,0.715,1.778,2.158
			c0.744,1.443,1.108,2.492,1.108,3.145v19.041V44.219z"/>
		<path fill="#FFFFFF" d="M58.176,45.024c0,1.566-0.957,3.084-2.872,4.559c-1.914,1.475-3.813,2.205-5.713,2.205
			c-1.095,0-2.188-0.244-3.207-0.67c-1.095-0.441-1.642-0.957-1.642-1.551c0.244-0.395,0.518-0.76,0.806-1.107
			c0.685-0.746,1.383-1.111,2.098-1.111c0.455,0.686,0.972,1.322,1.55,1.916c0.547,0.563,1.307,0.865,2.098,0.852
			c0.759-0.031,1.488-0.334,2.051-0.867c0.639-0.486,1.018-1.23,1.018-2.021c0-0.379-0.547-1.367-1.641-2.932
			c-1.094-1.566-1.764-2.355-2.006-2.355c-0.334,0-0.941,0.35-1.823,1.063c-0.882,0.715-1.565,1.064-2.052,1.064
			c-0.623,0-1.688-1.078-3.206-3.252c-1.81-2.584-2.72-5.092-2.72-7.553c0-2.158,1.123-4.648,3.388-7.461
			c1.216-1.398,2.569-2.674,4.043-3.799c1.899-1.52,2.963-2.295,3.206-2.295c1.186,1.033,2.066,1.824,2.629,2.355
			c1.777,1.688,2.674,2.781,2.674,3.297v15.697c0,0.305,0.229,0.822,0.67,1.551c0.44,0.744,0.668,1.58,0.668,2.447L58.176,45.024z
			 M50.472,39.493V26.18c-0.38-0.531-0.685-0.941-0.897-1.199c-0.683-0.836-1.153-1.246-1.428-1.246
			c-0.593,0-1.199,1.063-1.822,3.205c-0.244,0.762-0.396,1.551-0.441,2.355c0,1.977,0.441,3.922,1.291,5.699
			C48.328,37.458,49.423,38.961,50.472,39.493"/>
		<path fill="#FFFFFF" d="M74.785,31.834c0,1.412-0.258,2.826-0.806,4.133c-0.334,0.805-0.759,1.58-1.291,2.264
			c-0.958,1.309-1.687,2.279-2.219,2.934c-1.597,1.961-2.659,2.932-3.161,2.932c-0.577-0.076-1.109-0.334-1.52-0.729
			c-0.592-0.486-1.154-0.973-1.687-1.443c-1.413-1.094-2.567-2.461-3.435-4.027c-0.805-1.551-1.23-3.268-1.2-5.014
			c0-1.262,0.198-2.523,0.623-3.723c0.38-1.111,0.942-2.158,1.641-3.102c3.298-4.33,5.183-6.504,5.653-6.504
			c0.242,0,1.033,0.715,2.4,2.143c1.217,1.172,2.295,2.492,3.207,3.922c0.531,0.926,0.957,1.93,1.262,2.963
			c0.334,1.049,0.501,2.127,0.517,3.221L74.785,31.834z M70.697,37.168c0-2.432-0.623-4.832-1.824-6.945
			c-1.808-3.236-3.342-4.848-4.588-4.848c-0.35,0-0.608,0.273-0.729,0.82c-0.138,0.563-0.198,1.141-0.198,1.719
			c0,2.643,0.518,4.74,1.566,6.32c0.775,1.186,2.476,2.826,5.121,4.893c0.242-0.229,0.425-0.5,0.531-0.805
			c0.106-0.381,0.151-0.76,0.137-1.154H70.697z"/>
	</g>
</g>
</svg>
